<svg version="1.2" xmlns="http://www.w3.org/2000/svg" viewBox="0 0 640 512" width="640" height="512">
	<title>basement-chat-svg</title>
	<style>
		.s0 { fill: #3a82f7 } 
	</style>
	<path id="Layer" fill-rule="evenodd" class="s0" d="m208 0c114.9 0 208 78.8 208 176 0 97.2-93.1 176-208 176-16.2 0-32-1.5-47.1-4.5-4.6 2.3-9.4 4.6-14.2 6.8-36.2 16.4-79.7 29.7-122.7 29.7-9.6 0-18.2-5.7-22.1-14.6-3.7-8.7-2-18.9 4.6-25.9 14.3-15.6 26.3-33.7 36.6-52.1 0.9-1.6 1.9-3.4 2.8-5.1-28.7-30.2-45.9-68.5-45.9-110.3 0-97.2 93.1-176 208-176zm-119.9 309.1c-1 2-2.1 4-3.2 5.9-2.5 4.5-5.1 9-7.9 13.6 17-4.5 33.9-10.8 49.9-18q6.4-2.9 12.6-6c9.5-4.8 20.3-6.2 30.7-4.2 12 2.3 24.7 3.6 37.8 3.6 96.2 0 160-64.5 160-128 0-63.5-63.8-128-160-128-96.2 0-160 64.5-160 128 0 28 11.4 54.9 32.7 77.3 14.3 15 17.3 37.5 7.5 55.8zm157 72.3c17.2-2.4 34-6.4 50-11.8 26.8 35.8 75.1 62.3 136.8 62.3q19.7 0 37.8-3.6c10.4-2 21.2-0.6 30.7 4.2q6.1 3.1 12.6 6c16 7.3 32.9 13.5 49.9 18-2.7-4.6-5.4-9.1-7.9-13.6-1-1.9-2.1-3.9-3.2-5.9-9.8-18.2-6.8-40.8 7.5-55.8 21.3-22.3 32.7-49.2 32.7-77.2 0-59.9-56.8-120.7-144-127.4v-0.6c0-16.6-2.1-32.6-6.2-47.8 110.3 4.3 198.2 81.4 198.2 175.8 0 41.8-17.2 80.1-46 110.4 0.9 1.7 1.9 3.4 2.8 5.1 10.4 18.4 22.4 36.5 36.6 52.1 6.6 6.9 8.4 17.1 4.6 25.9-3.8 8.8-12.4 14.5-22 14.5-43 0-86.5-13.3-122.7-29.7-4.8-2.2-9.6-4.5-14.2-6.8-15.2 2.9-30.9 4.5-47.1 4.5-82 0-153-40.2-186.9-98.6z"/>
</svg>